<?xml version="1.0" encoding="UTF-8" standalone="no"?>
<!DOCTYPE svg PUBLIC "-//W3C//DTD SVG 1.1//EN"
 "http://www.w3.org/Graphics/SVG/1.1/DTD/svg11.dtd">
<!-- Generated by graphviz version 2.42.2 ()
 -->
<!-- Title: G Pages: 1 -->
<svg width="164pt" height="188pt"
 viewBox="0.00 0.00 164.25 188.00" xmlns="http://www.w3.org/2000/svg" xmlns:xlink="http://www.w3.org/1999/xlink">
<g id="graph0" class="graph" transform="scale(1 1) rotate(0) translate(4 184)">
<title>G</title>
<polygon fill="white" stroke="transparent" points="-4,4 -4,-184 160.25,-184 160.25,4 -4,4"/>
<!-- rain -->
<g id="node1" class="node">
<title>rain</title>
<ellipse fill="none" stroke="black" cx="27" cy="-162" rx="27" ry="18"/>
<text text-anchor="middle" x="27" y="-158.3" font-family="Times,serif" font-size="14.00">rain</text>
</g>
<!-- wet -->
<g id="node2" class="node">
<title>wet</title>
<ellipse fill="none" stroke="black" cx="70" cy="-90" rx="27" ry="18"/>
<text text-anchor="middle" x="70" y="-86.3" font-family="Times,serif" font-size="14.00">wet</text>
</g>
<!-- rain&#45;&gt;wet -->
<g id="edge1" class="edge">
<title>rain&#45;&gt;wet</title>
<path fill="none" stroke="black" d="M36.76,-145.12C42.15,-136.34 48.95,-125.26 55,-115.42"/>
<polygon fill="black" stroke="black" points="58.03,-117.17 60.28,-106.82 52.06,-113.51 58.03,-117.17"/>
</g>
<!-- slippery -->
<g id="node4" class="node">
<title>slippery</title>
<ellipse fill="none" stroke="black" cx="70" cy="-18" rx="38.99" ry="18"/>
<text text-anchor="middle" x="70" y="-14.3" font-family="Times,serif" font-size="14.00">slippery</text>
</g>
<!-- wet&#45;&gt;slippery -->
<g id="edge3" class="edge">
<title>wet&#45;&gt;slippery</title>
<path fill="none" stroke="black" d="M70,-71.7C70,-63.98 70,-54.71 70,-46.11"/>
<polygon fill="black" stroke="black" points="73.5,-46.1 70,-36.1 66.5,-46.1 73.5,-46.1"/>
</g>
<!-- sprinkler -->
<g id="node3" class="node">
<title>sprinkler</title>
<ellipse fill="none" stroke="black" cx="114" cy="-162" rx="42.49" ry="18"/>
<text text-anchor="middle" x="114" y="-158.3" font-family="Times,serif" font-size="14.00">sprinkler</text>
</g>
<!-- sprinkler&#45;&gt;wet -->
<g id="edge2" class="edge">
<title>sprinkler&#45;&gt;wet</title>
<path fill="none" stroke="black" d="M103.57,-144.41C98.18,-135.83 91.49,-125.19 85.51,-115.67"/>
<polygon fill="black" stroke="black" points="88.33,-113.59 80.05,-106.99 82.41,-117.32 88.33,-113.59"/>
</g>
</g>
</svg>
