<?xml version="1.0" encoding="UTF-8" standalone="no"?>
<!DOCTYPE svg PUBLIC "-//W3C//DTD SVG 1.1//EN"
 "http://www.w3.org/Graphics/SVG/1.1/DTD/svg11.dtd">
<!-- Generated by graphviz version 2.42.2 ()
 -->
<!-- Title: G Pages: 1 -->
<svg width="172pt" height="188pt"
 viewBox="0.00 0.00 172.00 188.00" xmlns="http://www.w3.org/2000/svg" xmlns:xlink="http://www.w3.org/1999/xlink">
<g id="graph0" class="graph" transform="scale(1 1) rotate(0) translate(4 184)">
<title>G</title>
<polygon fill="white" stroke="transparent" points="-4,4 -4,-184 168,-184 168,4 -4,4"/>
<!-- X_2 -->
<g id="node1" class="node">
<title>X_2</title>
<ellipse fill="none" stroke="black" cx="27" cy="-90" rx="27" ry="18"/>
<text text-anchor="middle" x="27" y="-86.3" font-family="Times,serif" font-size="14.00">X_2</text>
</g>
<!-- X_4 -->
<g id="node2" class="node">
<title>X_4</title>
<ellipse fill="none" stroke="black" cx="54" cy="-18" rx="27" ry="18"/>
<text text-anchor="middle" x="54" y="-14.3" font-family="Times,serif" font-size="14.00">X_4</text>
</g>
<!-- X_2&#45;&gt;X_4 -->
<g id="edge1" class="edge">
<title>X_2&#45;&gt;X_4</title>
<path fill="none" stroke="black" d="M33.4,-72.41C36.51,-64.34 40.33,-54.43 43.83,-45.35"/>
<polygon fill="black" stroke="black" points="47.13,-46.55 47.46,-35.96 40.6,-44.03 47.13,-46.55"/>
</g>
<!-- X_1 -->
<g id="node3" class="node">
<title>X_1</title>
<ellipse fill="none" stroke="black" cx="82" cy="-162" rx="27" ry="18"/>
<text text-anchor="middle" x="82" y="-158.3" font-family="Times,serif" font-size="14.00">X_1</text>
</g>
<!-- X_1&#45;&gt;X_2 -->
<g id="edge3" class="edge">
<title>X_1&#45;&gt;X_2</title>
<path fill="none" stroke="black" d="M70.07,-145.81C62.79,-136.55 53.34,-124.52 45.15,-114.09"/>
<polygon fill="black" stroke="black" points="47.84,-111.86 38.91,-106.16 42.34,-116.18 47.84,-111.86"/>
</g>
<!-- X_1&#45;&gt;X_4 -->
<g id="edge2" class="edge">
<title>X_1&#45;&gt;X_4</title>
<path fill="none" stroke="black" d="M78.62,-143.87C73.83,-119.56 65.01,-74.82 59.33,-46.01"/>
<polygon fill="black" stroke="black" points="62.76,-45.32 57.39,-36.19 55.89,-46.68 62.76,-45.32"/>
</g>
<!-- X_3 -->
<g id="node4" class="node">
<title>X_3</title>
<ellipse fill="none" stroke="black" cx="137" cy="-90" rx="27" ry="18"/>
<text text-anchor="middle" x="137" y="-86.3" font-family="Times,serif" font-size="14.00">X_3</text>
</g>
<!-- X_1&#45;&gt;X_3 -->
<g id="edge4" class="edge">
<title>X_1&#45;&gt;X_3</title>
<path fill="none" stroke="black" d="M93.93,-145.81C101.21,-136.55 110.66,-124.52 118.85,-114.09"/>
<polygon fill="black" stroke="black" points="121.66,-116.18 125.09,-106.16 116.16,-111.86 121.66,-116.18"/>
</g>
</g>
</svg>
