<?xml version="1.0" encoding="UTF-8" standalone="no"?>
<!DOCTYPE svg PUBLIC "-//W3C//DTD SVG 1.1//EN"
 "http://www.w3.org/Graphics/SVG/1.1/DTD/svg11.dtd">
<!-- Generated by graphviz version 2.42.2 ()
 -->
<!-- Title: G Pages: 1 -->
<svg width="226pt" height="188pt"
 viewBox="0.00 0.00 226.24 188.00" xmlns="http://www.w3.org/2000/svg" xmlns:xlink="http://www.w3.org/1999/xlink">
<g id="graph0" class="graph" transform="scale(1 1) rotate(0) translate(4 184)">
<title>G</title>
<polygon fill="white" stroke="transparent" points="-4,4 -4,-184 222.24,-184 222.24,4 -4,4"/>
<!-- wet -->
<g id="node1" class="node">
<title>wet</title>
<ellipse fill="none" stroke="black" cx="112.25" cy="-162" rx="27" ry="18"/>
<text text-anchor="middle" x="112.25" y="-158.3" font-family="Times,serif" font-size="14.00">wet</text>
</g>
<!-- sprinkler -->
<g id="node2" class="node">
<title>sprinkler</title>
<ellipse fill="none" stroke="black" cx="42.25" cy="-90" rx="42.49" ry="18"/>
<text text-anchor="middle" x="42.25" y="-86.3" font-family="Times,serif" font-size="14.00">sprinkler</text>
</g>
<!-- wet&#45;&gt;sprinkler -->
<g id="edge1" class="edge">
<title>wet&#45;&gt;sprinkler</title>
<path fill="none" stroke="black" d="M97.74,-146.5C88.37,-137.13 75.97,-124.73 65.27,-114.03"/>
<polygon fill="black" stroke="black" points="67.74,-111.55 58.2,-106.95 62.79,-116.5 67.74,-111.55"/>
</g>
<!-- rain -->
<g id="node3" class="node">
<title>rain</title>
<ellipse fill="none" stroke="black" cx="77.25" cy="-18" rx="27" ry="18"/>
<text text-anchor="middle" x="77.25" y="-14.3" font-family="Times,serif" font-size="14.00">rain</text>
</g>
<!-- wet&#45;&gt;rain -->
<g id="edge3" class="edge">
<title>wet&#45;&gt;rain</title>
<path fill="none" stroke="black" d="M109.02,-143.84C105.54,-125.84 99.62,-96.79 93.25,-72 91.03,-63.4 88.33,-54.1 85.79,-45.73"/>
<polygon fill="black" stroke="black" points="89.1,-44.6 82.8,-36.08 82.41,-46.67 89.1,-44.6"/>
</g>
<!-- slippery -->
<g id="node4" class="node">
<title>slippery</title>
<ellipse fill="none" stroke="black" cx="179.25" cy="-90" rx="38.99" ry="18"/>
<text text-anchor="middle" x="179.25" y="-86.3" font-family="Times,serif" font-size="14.00">slippery</text>
</g>
<!-- wet&#45;&gt;slippery -->
<g id="edge4" class="edge">
<title>wet&#45;&gt;slippery</title>
<path fill="none" stroke="black" d="M126.13,-146.5C135.01,-137.22 146.74,-124.97 156.91,-114.34"/>
<polygon fill="black" stroke="black" points="159.59,-116.59 163.98,-106.95 154.54,-111.75 159.59,-116.59"/>
</g>
<!-- sprinkler&#45;&gt;rain -->
<g id="edge2" class="edge">
<title>sprinkler&#45;&gt;rain</title>
<path fill="none" stroke="black" d="M50.72,-72.05C54.86,-63.77 59.94,-53.62 64.53,-44.42"/>
<polygon fill="black" stroke="black" points="67.75,-45.82 69.09,-35.31 61.49,-42.69 67.75,-45.82"/>
</g>
</g>
</svg>
